<svg width="126" height="38" viewBox="0 0 126 38" fill="none" xmlns="http://www.w3.org/2000/svg">
<path d="M11.5894 24.0291C13.8136 24.0107 15.4262 22.3703 15.4447 20.0111C15.4262 17.6519 13.8136 16.0115 11.5894 15.9931C9.32814 16.0115 7.73412 17.6703 7.73412 20.0111C7.73412 22.3519 9.32814 24.0107 11.5894 24.0291ZM21.9691 29.5216H15.2965V27.1624H15.1482C13.9805 29.153 12.1826 30.0377 9.84712 30.0377C4.65728 30.0377 1.02439 25.7248 1.02439 20.0111C1.02439 14.2974 4.65728 9.98454 9.84712 9.98454C12.164 9.98454 13.9619 10.8692 15.1111 12.8229H15.2965V10.5006H21.9691V29.5216ZM25.0193 29.5216V2.83323H31.729V29.5216H25.0193ZM44.3062 23.6605C46.5304 23.6789 48.1428 22.0385 48.1615 19.7162C48.1428 17.3939 46.5304 15.7535 44.3062 15.7719C42.0449 15.7535 40.4509 17.3939 40.4509 19.7162C40.4509 22.0385 42.0449 23.6789 44.3062 23.6605ZM43.676 38C39.7095 38 37.0033 36.636 34.0007 33.9082L37.9672 29.8165C39.7095 31.5676 41.359 32.3414 43.3053 32.36C46.2339 32.3414 47.9762 30.572 47.9391 27.6048V26.6832H47.8649C46.6787 28.5816 44.8806 29.4479 42.5639 29.4479C37.3741 29.4479 33.7412 25.2456 33.7412 19.7162C33.7412 14.1868 37.3741 9.98454 42.5639 9.98454C44.8806 9.98454 46.66 10.8324 47.8279 12.7124H47.9391V10.5006H54.6488V27.6048C54.6672 34.0188 50.4412 38 43.676 38ZM66.9665 30.0377C61.1094 30.0377 56.6981 25.7248 56.6981 20.0111C56.6981 14.2974 61.1094 9.98454 66.9665 9.98454C72.7866 9.98454 77.1979 14.2974 77.1979 20.0111C77.1979 25.7248 72.7866 30.0377 66.9665 30.0377ZM66.9665 24.0291C69.2278 24.0107 70.8589 22.3703 70.8589 20.0111C70.8589 17.6519 69.2278 16.0115 66.9665 15.9931C64.6682 16.0115 63.0371 17.6519 63.0371 20.0111C63.0371 22.3703 64.6682 24.0107 66.9665 24.0291ZM79.2101 29.5216V10.5006H85.9198V13.1547H86.0681C87.0877 11.1826 88.8671 9.98454 91.0726 9.98454C91.6473 9.98454 92.2034 10.0767 92.8149 10.2426V16.4723C91.9994 16.2696 91.1468 16.159 90.4053 16.1406C87.4397 16.159 85.9198 18.0021 85.9198 21.5593V29.5216H79.2101ZM95.2719 29.5216V10.5006H101.982V29.5216H95.2719ZM98.6453 8.47318C96.4582 8.49161 94.79 6.8881 94.8271 4.75008C94.79 2.63049 96.4582 1.04541 98.6453 1.02698C100.795 1.04541 102.464 2.63049 102.501 4.75008C102.464 6.8881 100.795 8.49161 98.6453 8.47318ZM103.549 29.5216L110.073 20.0111L103.512 10.5006H111.334L114.188 14.9978H114.336L117.154 10.5006H124.976L118.451 20.0111L124.939 29.5216H117.117L114.336 25.0613H114.188L111.371 29.5216H103.549Z" fill="#F5F5F5" style="fill:#F5F5F5;fill:color(display-p3 0.9608 0.9608 0.9608);fill-opacity:1;"/>
</svg>
